<svg width="713" height="136" viewBox="0 0 713 136" fill="none" xmlns="http://www.w3.org/2000/svg">
<path d="M92.0996 0C98.5109 1.08471e-06 104.186 0.637693 109.126 1.91258C114.225 3.05999 118.429 4.97216 121.736 7.64938C125.043 10.3266 127.228 13.8968 128.292 18.3589C129.486 22.8209 129.288 28.4939 127.699 35.378C126.404 40.9874 123.889 46.2147 120.153 51.0593C116.418 55.9039 111.704 59.6015 106.013 62.1513C112.316 64.3186 116.812 68.0792 119.502 73.4336C122.22 78.6606 122.578 85.6088 120.577 94.2779C118.782 102.055 115.761 108.621 111.516 113.976C107.3 119.202 102.207 123.41 96.2377 126.597C90.2681 129.784 83.6538 132.079 76.3954 133.481C69.1664 134.756 61.6266 135.394 53.7761 135.394H4.42941C1.98304 135.394 0.445904 133.461 0.996183 131.078L2.8439 123.074L61.2409 77.0542L67.443 84.8501L60.0921 90.6973L70.9441 104.341L105.248 77.0542L94.3955 63.4111L87.0446 69.2583L80.8437 61.4614L88.1946 55.6143L47.3861 24.4306L40.0354 30.2768C55.5011 49.7197 49.5182 67.2234 49.4889 67.3086L8.21153 99.8244L30.2613 4.31615C30.8117 1.93247 33.2411 0 35.6875 0H92.0996Z" fill="#EF720F"/>
<path d="M685.538 43.7759C710.732 43.7759 715.556 51.0125 711.134 80.093L710.464 84.1134C710.062 86.6596 709.258 87.7317 705.371 87.7317H663.024C661.147 101.937 663.828 105.153 676.827 105.153H699.609C700.949 105.153 701.485 105.823 701.351 107.163L700.011 115.472C699.877 116.946 699.073 117.482 697.733 117.75C690.63 118.822 682.187 119.224 673.61 119.224C647.478 119.224 642.788 111.72 647.478 81.5672C652.303 51.2805 659.539 43.7759 685.538 43.7759ZM683.393 57.8471C670.93 57.8471 667.312 61.5994 664.766 76.0727H695.454C697.599 61.5994 695.32 57.8471 683.393 57.8471Z" fill="#1E1E1E"/>
<path d="M628.734 16.1694H640.929C642.403 16.1694 642.939 16.7055 642.671 18.1796L627.528 113.998C627.26 115.874 626.188 116.544 624.58 116.812C612.921 118.688 605.148 119.224 595.499 119.224C568.429 119.224 563.873 111.586 568.563 81.5671C573.253 51.8165 580.356 43.7758 605.282 43.7758C612.251 43.7758 617.745 44.0439 622.302 44.5799L626.456 18.1796C626.59 16.7055 627.394 16.1694 628.734 16.1694ZM620.157 57.8471H605.416C590.407 57.8471 587.861 62.2694 584.778 81.5671C581.83 99.7927 582.5 105.153 597.509 105.153C601.798 105.153 607.962 104.751 612.787 104.081L620.157 57.8471Z" fill="#1E1E1E"/>
<path d="M528.915 43.7759C552.501 43.7759 559.068 51.2805 556.79 65.7538L549.285 112.39C549.151 114.132 548.615 115.472 546.069 116.276C538.698 118.286 526.771 119.224 515.38 119.224C496.618 119.224 487.64 116.276 490.588 96.8445C493.402 79.825 503.051 75.5366 519.534 75.5366H538.966L540.038 68.568C541.11 61.0634 537.358 57.8471 526.637 57.8471H504.525C503.051 57.8471 502.649 57.4451 502.917 55.7029L504.257 47.6622C504.525 46.0541 505.061 45.786 506.401 45.518C514.71 44.0439 521.947 43.7759 528.915 43.7759ZM537.09 87.1956H518.596C511.494 87.1956 507.875 89.4739 506.803 96.1744C505.597 103.813 508.947 105.689 518.864 105.689C522.215 105.689 529.585 105.421 534.41 104.215L537.09 87.1956Z" fill="#1E1E1E"/>
<path d="M476.233 43.7759C479.717 43.7759 488.83 44.1779 492.315 45.25C493.521 45.652 494.191 46.1881 493.923 47.6622L492.583 55.8369C492.449 57.3111 491.511 57.9811 490.17 57.8471H477.975C469.935 57.8471 467.254 59.1872 466.316 65.0837L458.142 116.544C458.008 117.884 457.204 118.554 455.863 118.554H443.668C442.328 118.554 441.792 117.884 441.926 116.544L450.771 60.9294C453.317 44.982 466.182 43.7759 476.233 43.7759Z" fill="#1E1E1E"/>
<path d="M414.263 27.0243L426.994 23.942C428.603 23.54 429.139 24.344 428.871 25.8182L425.922 44.5798H439.189C440.664 44.5798 441.2 45.2499 441.066 46.59L439.592 55.0327C439.458 56.5068 438.653 57.1769 437.179 57.1769H423.912L417.48 98.0504C416.542 103.947 418.15 105.153 424.716 105.153H430.613C432.087 105.153 432.757 105.689 432.623 107.029L431.283 115.874C430.881 117.348 430.077 118.018 428.737 118.286C424.984 118.956 421.098 119.224 419.088 119.224C408.635 119.224 397.914 118.956 400.46 102.875L407.697 57.1769H400.058C398.584 57.1769 398.048 56.5068 398.182 55.0327L399.522 46.59C399.656 45.2499 400.594 44.5798 401.934 44.5798H409.707L412.119 29.1685C412.387 27.8283 413.057 27.2923 414.263 27.0243Z" fill="#1E1E1E"/>
<path d="M374.508 44.4458H386.837C388.177 44.4458 388.714 44.9818 388.446 46.456L377.591 114.802C377.323 116.544 376.652 116.678 375.312 116.946C365.127 118.956 353.066 119.224 345.026 119.224C320.234 119.224 313.935 115.338 318.357 87.3295L324.79 46.456C325.058 44.9818 325.996 44.4458 327.336 44.4458H339.397C340.737 44.4458 341.273 45.1159 341.139 46.456L334.975 84.3813C331.893 104.215 334.841 105.153 347.438 105.153H362.849L372.096 46.456C372.364 44.9818 373.168 44.4458 374.508 44.4458Z" fill="#EF720F"/>
<path d="M277.905 43.7759C301.491 43.7759 308.058 51.2805 305.78 65.7538L298.275 112.39C298.141 114.132 297.605 115.472 295.059 116.276C287.688 118.286 275.761 119.224 264.37 119.224C245.609 119.224 236.63 116.276 239.578 96.8445C242.392 79.825 252.041 75.5366 268.525 75.5366H287.956L289.028 68.568C290.1 61.0634 286.348 57.8471 275.627 57.8471H253.515C252.041 57.8471 251.639 57.4451 251.907 55.7029L253.247 47.6622C253.515 46.0541 254.051 45.786 255.391 45.518C263.7 44.0439 270.937 43.7759 277.905 43.7759ZM286.08 87.1956H267.586C260.484 87.1956 256.866 89.4739 255.793 96.1744C254.587 103.813 257.938 105.689 267.855 105.689C271.205 105.689 278.575 105.421 283.4 104.215L286.08 87.1956Z" fill="#EF720F"/>
<path d="M179.823 16.1694H192.018C193.492 16.1694 194.028 16.7055 193.76 18.1796L189.606 44.5799C194.162 44.0439 199.924 43.7758 206.893 43.7758C231.819 43.7758 236.242 51.8165 231.551 81.5671C226.861 111.452 219.758 119.224 192.688 119.224C183.039 119.224 175.534 118.688 164.411 116.812C162.803 116.544 162.133 115.874 162.401 113.998L177.544 18.1796C177.813 16.7055 178.483 16.1694 179.823 16.1694ZM202.069 57.8471H187.461L180.091 104.081C184.781 104.751 190.812 105.153 195.1 105.153C210.109 105.153 212.522 99.7927 215.336 81.5671C218.418 62.2694 217.212 57.8471 202.069 57.8471Z" fill="#EF720F"/>
</svg>
